<svg viewBox="0 0 500 280" xmlns="http://www.w3.org/2000/svg">
  <rect x="0" y="200" width="500" height="80" fill="rgba(26,18,8,0.45)" />
  <rect x="0" y="200" width="500" height="3" fill="rgba(0,0,0,0.4)" />

  <g transform="translate(110,80)">
    <ellipse cx="0" cy="0" rx="14" ry="22" fill="#7A4B2A" />
    <ellipse cx="0" cy="-2" rx="10" ry="6" fill="rgba(255,255,255,0.18)" />
    <line x1="0" y1="20" x2="0" y2="118" stroke="#1A1208" stroke-width="3" stroke-linecap="round" />
  </g>

  <g transform="translate(220,90)">
    <ellipse cx="-12" cy="0" rx="14" ry="10" fill="none" stroke="#B8863C" stroke-width="3" />
    <ellipse cx="14" cy="0" rx="14" ry="10" fill="none" stroke="#B8863C" stroke-width="3" />
    <line x1="-2" y1="2" x2="36" y2="80" stroke="#D4A855" stroke-width="3" stroke-linecap="round" />
    <line x1="2" y1="2" x2="-32" y2="80" stroke="#D4A855" stroke-width="3" stroke-linecap="round" />
    <circle cx="0" cy="2" r="3" fill="#3B2010" />
  </g>

  <g transform="translate(330,150)">
    <ellipse cx="0" cy="0" rx="48" ry="30" fill="#FAF6EE" stroke="#3B2010" stroke-width="2" />
    <ellipse cx="0" cy="0" rx="14" ry="10" fill="#1A1208" />
    <line x1="-30" y1="-20" x2="-30" y2="-14" stroke="#3B2010" stroke-width="1.2" />
    <line x1="-20" y1="-20" x2="-20" y2="-10" stroke="#3B2010" stroke-width="1.2" />
    <line x1="-10" y1="-20" x2="-10" y2="-14" stroke="#3B2010" stroke-width="1.2" />
    <line x1="0" y1="-20" x2="0" y2="-10" stroke="#3B2010" stroke-width="1.2" />
    <line x1="10" y1="-20" x2="10" y2="-14" stroke="#3B2010" stroke-width="1.2" />
    <line x1="20" y1="-20" x2="20" y2="-10" stroke="#3B2010" stroke-width="1.2" />
    <line x1="30" y1="-20" x2="30" y2="-14" stroke="#3B2010" stroke-width="1.2" />
  </g>

  <path
    d="M70,170 Q120,150 180,170 Q200,180 195,200 Q150,220 90,210 Q60,200 70,170 Z"
    fill="#5C3A1E"
    opacity="0.85"
  />
  <path
    d="M75,175 Q120,158 175,175"
    stroke="rgba(255,255,255,0.15)"
    stroke-width="2"
    fill="none"
  />
</svg>
